<svg width="113" height="54" viewBox="0 0 113 54" fill="none"
    xmlns="http://www.w3.org/2000/svg">
    <path d="M20.1236 8.064H23.0036L26.5876 18.784L27.4676 18.944V20H22.4276V18.944L23.5636 18.784L23.0196 16.864H19.1956L18.6516 18.8L19.8996 18.944V20H15.6436L15.6276 18.944L16.5556 18.768L20.1236 8.064ZM21.3076 10.848L21.0676 9.728L20.8116 10.864L19.5156 15.632H22.6836L21.3076 10.848ZM37.0981 20.286C34.0995 20.286 31.8201 19.4193 30.2601 17.686C28.7001 15.9353 27.9201 13.5433 27.9201 10.51C27.9201 8.46467 28.3361 6.688 29.1681 5.18C30.0001 3.65467 31.1441 2.49333 32.6001 1.696C34.0561 0.881332 35.7028 0.473999 37.5401 0.473999C38.2681 0.473999 38.9701 0.517332 39.6461 0.603999C40.3221 0.673332 41.1368 0.777332 42.0901 0.915999C42.8355 1.03733 43.3468 1.10667 43.6241 1.124L43.3121 6.922H40.5301L39.6461 2.944C39.2648 2.528 38.4675 2.32 37.2541 2.32C35.9195 2.32 34.8621 2.98733 34.0821 4.322C33.3195 5.63933 32.9381 7.58067 32.9381 10.146C32.9381 12.642 33.3108 14.644 34.0561 16.152C34.8188 17.66 35.9195 18.414 37.3581 18.414C38.0688 18.414 38.6061 18.3447 38.9701 18.206C39.3515 18.0673 39.6721 17.868 39.9321 17.608L41.1021 14.826L43.6501 15.06L43.1821 19.298C42.6795 19.3327 42.0641 19.4627 41.3361 19.688C40.6428 19.8787 39.9841 20.026 39.3601 20.13C38.7535 20.234 37.9995 20.286 37.0981 20.286ZM51.271 0.603999H55.951L61.775 18.024L63.205 18.284V20H55.015V18.284L56.861 18.024L55.977 14.904H49.763L48.879 18.05L50.907 18.284V20H43.991L43.965 18.284L45.473 17.998L51.271 0.603999ZM53.195 5.128L52.805 3.308L52.389 5.154L50.283 12.902H55.431L53.195 5.128ZM70.6678 20.286C69.7145 20.286 68.8305 20.208 68.0158 20.052C67.2185 19.896 66.3778 19.688 65.4938 19.428C64.9218 19.2547 64.5058 19.1593 64.2458 19.142L64.4798 14.28H66.8978L67.5478 17.608C67.7385 17.8333 68.0851 18.0327 68.5878 18.206C69.1078 18.3793 69.7231 18.466 70.4338 18.466C71.4911 18.466 72.2798 18.232 72.7998 17.764C73.3371 17.296 73.6058 16.6547 73.6058 15.84C73.6058 15.268 73.4325 14.774 73.0858 14.358C72.7565 13.9247 72.2885 13.5347 71.6818 13.188C71.0925 12.824 70.2778 12.408 69.2378 11.94C67.8685 11.316 66.7071 10.5273 65.7538 9.574C64.8178 8.60333 64.3498 7.32933 64.3498 5.752C64.3498 4.78133 64.6011 3.89733 65.1038 3.1C65.6065 2.30267 66.3691 1.66133 67.3918 1.176C68.4145 0.690666 69.6885 0.447999 71.2138 0.447999C72.1325 0.447999 72.9298 0.508666 73.6058 0.629998C74.2991 0.751332 75.0358 0.915999 75.8158 1.124C76.2318 1.26267 76.5525 1.34067 76.7778 1.358L76.6218 5.986H74.2558L73.6578 2.788C73.5365 2.632 73.2591 2.49333 72.8258 2.372C72.4098 2.23333 71.9418 2.164 71.4218 2.164C70.4685 2.164 69.7491 2.38933 69.2638 2.84C68.7958 3.29067 68.5618 3.87133 68.5618 4.582C68.5618 5.206 68.7611 5.752 69.1598 6.22C69.5585 6.688 70.0351 7.08667 70.5898 7.416C71.1618 7.728 72.0285 8.17 73.1898 8.742C74.1085 9.19267 74.9058 9.652 75.5818 10.12C76.2751 10.5707 76.8645 11.16 77.3498 11.888C77.8351 12.616 78.0778 13.4653 78.0778 14.436C78.0778 15.3893 77.8438 16.308 77.3758 17.192C76.9251 18.076 76.1451 18.8127 75.0358 19.402C73.9265 19.9913 72.4705 20.286 70.6678 20.286ZM85.4975 0.603999H90.1775L96.0015 18.024L97.4315 18.284V20H89.2415V18.284L91.0875 18.024L90.2035 14.904H83.9895L83.1055 18.05L85.1335 18.284V20H78.2175L78.1915 18.284L79.6995 17.998L85.4975 0.603999ZM87.4215 5.128L87.0315 3.308L86.6155 5.154L84.5095 12.902H89.6575L87.4215 5.128ZM1.43225 42.456L0.26425 42.232V41.112H2.76025C3.11225 41.112 3.58692 41.0907 4.18425 41.048C4.32292 41.0373 4.53092 41.0267 4.80825 41.016C5.09625 41.0053 5.35225 41 5.57625 41C7.51758 41 8.97892 41.4853 9.96025 42.456C10.9416 43.4267 11.4323 44.8187 11.4323 46.632C11.4323 47.88 11.1923 48.9947 10.7123 49.976C10.2323 50.9573 9.54425 51.7307 8.64825 52.296C7.75225 52.8507 6.69625 53.128 5.48025 53.128C5.14958 53.128 4.65358 53.1067 3.99225 53.064C3.37358 53.0213 2.97358 53 2.79225 53H0.20025V51.944L1.43225 51.768V42.456ZM4.13625 51.816C4.50958 51.9333 4.93625 51.9813 5.41625 51.96C6.37625 51.9493 7.11758 51.544 7.64025 50.744C8.17358 49.9333 8.44025 48.696 8.44025 47.032C8.44025 45.496 8.17892 44.296 7.65625 43.432C7.14425 42.5573 6.33358 42.12 5.22425 42.12C4.96825 42.12 4.73892 42.136 4.53625 42.168C4.33358 42.2 4.20025 42.2213 4.13625 42.232V51.816ZM17.5714 53.176C15.7794 53.176 14.4514 52.6373 13.5874 51.56C12.7234 50.472 12.2914 48.9787 12.2914 47.08C12.2914 45.8533 12.5154 44.7813 12.9634 43.864C13.422 42.936 14.062 42.2213 14.8834 41.72C15.7047 41.2187 16.6647 40.968 17.7634 40.968C19.598 40.968 20.9474 41.48 21.8114 42.504C22.686 43.5173 23.1234 44.968 23.1234 46.856C23.1234 48.104 22.894 49.208 22.4354 50.168C21.9767 51.1173 21.326 51.8587 20.4834 52.392C19.6514 52.9147 18.6807 53.176 17.5714 53.176ZM17.7154 42.024C16.9474 42.024 16.35 42.4453 15.9234 43.288C15.5074 44.1307 15.2994 45.3893 15.2994 47.064C15.2994 48.7707 15.5074 50.04 15.9234 50.872C16.3394 51.6933 16.9314 52.104 17.6994 52.104C18.4567 52.104 19.0434 51.656 19.4594 50.76C19.886 49.8533 20.0994 48.5573 20.0994 46.872C20.0994 45.1653 19.8967 43.9333 19.4914 43.176C19.086 42.408 18.494 42.024 17.7154 42.024ZM26.4745 35.866L24.5505 35.502V33.682H28.7885C29.0658 33.682 29.6032 33.6647 30.4005 33.63C31.4058 33.5607 32.3158 33.526 33.1305 33.526C35.0025 33.526 36.4758 33.7513 37.5505 34.202C38.6252 34.6527 39.3878 35.3027 39.8385 36.152C40.2892 36.984 40.5145 38.0413 40.5145 39.324C40.5145 41.5427 39.8385 43.2673 38.4865 44.498C37.1345 45.7287 35.2105 46.344 32.7145 46.344C31.9345 46.344 31.3365 46.318 30.9205 46.266V50.998L34.3525 51.284V53H24.4725V51.284L26.4745 51.024V35.866ZM30.8945 44.472C31.2412 44.5587 31.8132 44.602 32.6105 44.602C34.8638 44.602 35.9905 42.8773 35.9905 39.428C35.9905 37.9893 35.7045 36.9407 35.1325 36.282C34.5778 35.606 33.7372 35.268 32.6105 35.268C32.1252 35.268 31.7438 35.294 31.4665 35.346C31.1892 35.3807 30.9985 35.4067 30.8945 35.424V44.472ZM50.9917 53.208C48.305 53.208 46.2944 52.558 44.9597 51.258C43.625 49.958 42.9577 47.9213 42.9577 45.148V35.866L41.3457 35.502V33.682H49.7437V35.502L47.5597 35.892V45.512C47.5597 49.4293 48.9204 51.388 51.6417 51.388C52.9937 51.388 53.9817 50.8767 54.6057 49.854C55.247 48.814 55.5677 47.384 55.5677 45.564V35.866L53.3317 35.502V33.682H60.0917V35.502L58.3757 35.866V45.33C58.3757 48.034 57.7084 50.0273 56.3737 51.31C55.0564 52.5753 53.2624 53.208 50.9917 53.208ZM63.2147 35.866L61.2647 35.502V33.682H70.1307V35.502L67.6607 35.866V50.972L72.5487 50.712L74.2387 45.564L76.6827 45.876L75.9287 53H61.2127V51.284L63.2147 51.024V35.866ZM79.871 35.866L77.947 35.502V33.682H82.185C82.4623 33.682 82.9997 33.6647 83.797 33.63C84.8023 33.5607 85.7123 33.526 86.527 33.526C88.399 33.526 89.8723 33.7513 90.947 34.202C92.0217 34.6527 92.7843 35.3027 93.235 36.152C93.6857 36.984 93.911 38.0413 93.911 39.324C93.911 41.5427 93.235 43.2673 91.883 44.498C90.531 45.7287 88.607 46.344 86.111 46.344C85.331 46.344 84.733 46.318 84.317 46.266V50.998L87.749 51.284V53H77.869V51.284L79.871 51.024V35.866ZM84.291 44.472C84.6377 44.5587 85.2097 44.602 86.007 44.602C88.2603 44.602 89.387 42.8773 89.387 39.428C89.387 37.9893 89.101 36.9407 88.529 36.282C87.9743 35.606 87.1337 35.268 86.007 35.268C85.5217 35.268 85.1403 35.294 84.863 35.346C84.5857 35.3807 84.395 35.4067 84.291 35.424V44.472ZM103.608 53.286C100.696 53.286 98.5382 52.4107 97.1342 50.66C95.7302 48.892 95.0282 46.4653 95.0282 43.38C95.0282 41.3867 95.3922 39.6447 96.1202 38.154C96.8655 36.646 97.9055 35.4847 99.2402 34.67C100.575 33.8553 102.135 33.448 103.92 33.448C106.902 33.448 109.094 34.28 110.498 35.944C111.92 37.5907 112.63 39.948 112.63 43.016C112.63 45.044 112.258 46.838 111.512 48.398C110.767 49.9407 109.71 51.1453 108.34 52.012C106.988 52.8613 105.411 53.286 103.608 53.286ZM103.842 35.164C102.594 35.164 101.624 35.8487 100.93 37.218C100.254 38.5873 99.9162 40.6327 99.9162 43.354C99.9162 46.1273 100.254 48.19 100.93 49.542C101.606 50.8767 102.568 51.544 103.816 51.544C105.047 51.544 106 50.816 106.676 49.36C107.37 47.8867 107.716 45.7807 107.716 43.042C107.716 40.2687 107.387 38.2667 106.728 37.036C106.07 35.788 105.108 35.164 103.842 35.164Z" fill="url(#gradient)"/>
    <defs>
        <linearGradient id="gradient" x1="56.5" y1="60" x2="56.5" y2="-6" gradientUnits="userSpaceOnUse">
            <stop stop-color="#7E458B"/>
            <stop offset="0.505208" stop-color="#F65D65"/>
            <stop offset="0.953125" stop-color="#FB9378"/>
        </linearGradient>
    </defs>
</svg>
    
